<svg enable-background="new 0 0 292.2 52.5" height="52.5" viewBox="0 0 292.2 52.5" width="292.5" xmlns="http://www.w3.org/2000/svg"><g fill="#5c6971"><path d="m158.7 31.7v-9.9h-8.6v9.9h-2.3v-20.7h2.3v9h8.6v-9h2.3v20.7z"></path><path d="m167.7 24.2c0 .6.1 1.3.2 2 .2.7.4 1.4.7 2s.8 1.1 1.3 1.5 1.1.6 1.9.6c.4 0 .9 0 1.3-.1s.8-.2 1.2-.3.7-.3.9-.4c.3-.1.5-.3.7-.4l.7 1.8c-.1.1-.3.2-.6.3s-.7.2-1.1.4c-.4.1-.9.2-1.4.3s-1.1.1-1.7.1c-1.2 0-2.2-.3-3-.8s-1.4-1.2-1.9-2.1c-.5-.8-.8-1.8-1-2.8s-.3-2-.3-3c0-.8.1-1.6.4-2.5.2-.9.6-1.8 1.1-2.5.5-.8 1.1-1.4 1.8-1.9s1.5-.8 2.5-.8c1.1 0 1.9.2 2.7.7.7.5 1.3 1.1 1.8 1.9.4.8.8 1.6 1 2.5s.3 1.8.3 2.6v.8h-9.5zm7-3.1c-.1-.6-.3-1.2-.6-1.7s-.6-1-1.1-1.4-1-.6-1.6-.6-1.1.2-1.6.5c-.5.4-.8.8-1.1 1.3s-.5 1.1-.7 1.7-.2 1.2-.2 1.7h7.2c-.1-.4-.1-.9-.3-1.5z"></path><path d="m183.6 11.9c0 .4-.2.8-.5 1.1s-.7.4-1.1.4-.8-.1-1.1-.4-.5-.7-.5-1.1.2-.8.5-1.1.7-.4 1.1-.4.8.1 1.1.4c.4.3.5.7.5 1.1zm-2.6 19.8v-15.6h2.1v15.6z"></path><path d="m197.2 31.7v-2.2c-.1.1-.2.3-.4.6s-.5.6-.9.9-.8.5-1.2.8c-.4.2-.9.3-1.4.3-1.1 0-2-.3-2.7-.8s-1.4-1.2-1.8-2c-.5-.8-.8-1.7-1-2.8-.2-1-.3-2-.3-3.1 0-.9.1-1.9.4-2.8s.7-1.8 1.2-2.5 1.1-1.3 1.9-1.8c.7-.5 1.5-.7 2.4-.7.5 0 .9.1 1.4.3.4.2.8.4 1.1.7s.6.6.8.8c.2.3.4.5.5.7v-8.5h2.1v22h-2.1zm-.1-11.1c0-.2-.2-.4-.3-.8-.2-.3-.4-.7-.7-1-.3-.4-.7-.7-1.1-.9-.4-.3-.9-.4-1.4-.4-.6 0-1.1.2-1.6.5s-.9.7-1.2 1.3c-.3.5-.6 1.2-.8 1.9s-.3 1.5-.3 2.3c0 .7.1 1.5.2 2.3s.4 1.5.7 2.2.7 1.2 1.2 1.6 1.1.7 1.8.7c.5 0 .9-.1 1.3-.4s.8-.5 1.1-.9c.3-.3.6-.7.8-1s.3-.6.4-.7v-6.7z"></path><path d="m205.6 24.2c0 .6.1 1.3.2 2 .2.7.4 1.4.7 2s.8 1.1 1.3 1.5 1.1.6 1.9.6c.4 0 .9 0 1.3-.1s.8-.2 1.2-.3.7-.3.9-.4c.3-.1.5-.3.7-.4l.7 1.8c-.1.1-.3.2-.6.3s-.7.2-1.1.4c-.4.1-.9.2-1.4.3s-1.1.1-1.7.1c-1.2 0-2.2-.3-3-.8s-1.4-1.2-1.9-2.1c-.5-.8-.8-1.8-1-2.8s-.3-2-.3-3c0-.8.1-1.6.4-2.5.2-.9.6-1.8 1.1-2.5.5-.8 1.1-1.4 1.8-1.9s1.5-.8 2.5-.8c1.1 0 1.9.2 2.7.7.7.5 1.3 1.1 1.8 1.9.4.8.8 1.6 1 2.5s.3 1.8.3 2.6v.8h-9.5zm7-3.1c-.1-.6-.3-1.2-.6-1.7s-.6-1-1.1-1.4-1-.6-1.6-.6-1.1.2-1.6.5c-.5.4-.8.8-1.1 1.3s-.5 1.1-.7 1.7-.2 1.2-.2 1.7h7.2c-.1-.4-.1-.9-.3-1.5z"></path><path d="m227.9 31.7v-10.5c0-.4-.1-.8-.2-1.3-.1-.4-.3-.8-.6-1.2-.2-.4-.6-.7-.9-.9-.4-.2-.8-.3-1.3-.3s-.9.1-1.4.3c-.4.2-.8.5-1.2.8-.3.3-.6.6-.8 1-.2.3-.3.6-.4.8v11.2h-2.1v-15.5h2.1v2.2c0-.1.2-.3.4-.6s.5-.6.9-.9.8-.5 1.3-.8c.5-.2 1-.3 1.5-.3.8 0 1.6.2 2.2.5s1.1.7 1.5 1.2.7 1.1.9 1.7.3 1.3.3 1.9v10.7z"></path><path d="m243.9 31.7v-10.5c0-.4-.1-.8-.2-1.3-.1-.4-.3-.8-.6-1.2-.2-.4-.6-.7-.9-.9-.4-.2-.8-.3-1.3-.3s-1 .1-1.4.4c-.4.2-.8.5-1.2.8-.3.3-.6.6-.8 1-.2.3-.3.6-.3.8v11.2h-2.2v-22h2.1v8.6c0-.1.2-.3.4-.6s.5-.6.9-.9.8-.5 1.2-.8c.5-.2 1-.3 1.5-.3.8 0 1.6.2 2.2.5s1.1.7 1.5 1.2.7 1.1.9 1.7.3 1.3.3 1.9v10.7z"></path><path d="m252.4 24.2c0 .6.1 1.3.2 2 .2.7.4 1.4.7 2s.8 1.1 1.3 1.5 1.1.6 1.9.6c.4 0 .9 0 1.3-.1s.8-.2 1.2-.3.7-.3.9-.4c.3-.1.5-.3.7-.4l.7 1.8c-.1.1-.3.2-.6.3s-.7.2-1.1.4c-.4.1-.9.2-1.4.3s-1.1.1-1.7.1c-1.2 0-2.2-.3-3-.8s-1.4-1.2-1.9-2.1c-.5-.8-.8-1.8-1-2.8s-.3-2-.3-3c0-.8.1-1.6.4-2.5.2-.9.6-1.8 1.1-2.5.5-.8 1.1-1.4 1.8-1.9s1.6-.8 2.5-.8c1.1 0 1.9.2 2.7.7.7.5 1.3 1.1 1.8 1.9.4.8.8 1.6 1 2.5s.3 1.8.3 2.6v.8h-9.5zm7-3.1c-.1-.6-.3-1.2-.6-1.7s-.6-1-1.1-1.4-1-.6-1.6-.6-1.1.2-1.6.5c-.5.4-.8.8-1.1 1.3s-.5 1.1-.7 1.7-.2 1.2-.2 1.7h7.2c-.1-.4-.2-.9-.3-1.5z"></path><path d="m268.3 11.9c0 .4-.2.8-.5 1.1s-.7.4-1.1.4-.8-.1-1.1-.4-.5-.7-.5-1.1.2-.8.5-1.1.7-.4 1.1-.4.8.1 1.1.4c.4.3.5.7.5 1.1zm-2.6 19.8v-15.6h2.1v15.6z"></path><path d="m290.1 31.7v-10.5c0-.5-.1-.9-.2-1.4-.1-.4-.3-.8-.5-1.2s-.5-.6-.9-.9c-.4-.2-.8-.3-1.3-.3s-1 .1-1.4.3-.8.4-1.1.7-.5.6-.7.9-.3.6-.3.8v11.5h-2.1v-10.4c0-.5 0-.9-.1-1.4-.1-.4-.2-.8-.5-1.2-.2-.4-.5-.6-.9-.9-.4-.2-.8-.3-1.4-.3-.5 0-1 .1-1.4.3s-.8.5-1.1.8-.6.6-.7 1c-.2.3-.3.6-.3.8v11.2h-2.1v-15.4h2.1v2.2c.1-.1.2-.3.4-.5.2-.3.5-.6.8-.9s.7-.6 1.2-.8 1-.3 1.6-.3c.8 0 1.4.1 1.9.3s.9.5 1.3.7c.3.3.6.6.7.8.2.3.3.5.4.7.1-.1.2-.3.4-.6s.5-.6.9-.9.8-.5 1.3-.8c.5-.2 1.1-.3 1.7-.3.9 0 1.6.2 2.3.5.6.3 1.1.7 1.5 1.2s.6 1.1.8 1.7.2 1.3.2 1.9v10.7z"></path><path d="m56.9 49.2c0 .2 0 .5-.1.6-.1.2-.2.3-.4.5-.2.1-.4.2-.6.3s-.5.1-.7.1h-1.3v-5.3h1.4c.2 0 .4 0 .6.1s.4.1.5.2.3.2.3.4c.1.2.1.4.1.6 0 .1 0 .3-.1.4s-.1.2-.2.3-.2.2-.3.3-.2.1-.3.2c.1 0 .3.1.4.1.1.1.3.2.4.3s.2.2.2.4.1.3.1.5zm-.8-2.4c0-.3-.1-.5-.3-.6-.2-.2-.4-.2-.7-.2h-.9v1.8h.8c.1 0 .3 0 .4-.1.1 0 .2-.1.3-.2s.2-.2.2-.3c.2-.2.2-.3.2-.4zm.2 2.3c0-.3-.1-.5-.3-.7s-.5-.3-.8-.3h-.9v2.1h.9c.2 0 .3 0 .4-.1s.3-.1.4-.2.2-.2.2-.3.1-.3.1-.5z"></path><path d="m59.9 50.7v-.6s-.1.1-.1.2c-.1.1-.1.1-.2.2s-.2.1-.3.2-.3.1-.4.1c-.3 0-.6-.1-.9-.3-.2-.2-.3-.5-.3-.8 0-.2 0-.3.1-.5.1-.1.2-.3.4-.4.1-.1.3-.2.5-.3s.3-.1.5-.2l.8-.2v-.1c0-.3-.1-.5-.2-.7s-.4-.3-.6-.3c-.1 0-.2 0-.3 0s-.2.1-.3.1-.2.1-.3.1-.1.1-.1.1l-.3-.3s.1 0 .1-.1c.1 0 .2-.1.3-.1s.2-.1.4-.1h.4c.4 0 .7.1 1 .3.2.2.4.6.4 1v2.7zm0-2.1-.7.1c-.1 0-.2.1-.4.1-.1.1-.2.1-.3.2s-.2.2-.3.3-.1.2-.1.3c0 .2.1.4.2.5s.3.2.5.2c.1 0 .2 0 .4-.1.1 0 .2-.1.3-.2s.2-.2.2-.2c.1-.1.1-.2.1-.2v-1z"></path><path d="m64 50.7v-.6s-.1.1-.1.2c-.1.1-.1.1-.2.2s-.2.1-.3.2-.2.1-.3.1c-.3 0-.5-.1-.7-.2s-.3-.3-.5-.5c-.1-.2-.2-.4-.3-.7s-.1-.5-.1-.8c0-.2 0-.5.1-.7s.2-.4.3-.6.3-.3.5-.5c.2-.1.4-.2.6-.2.1 0 .2 0 .3.1s.2.1.3.2.2.1.2.2c.1.1.1.1.1.2v-2.2h.5v5.6zm-.1-2.8s0-.1-.1-.2c0-.1-.1-.2-.2-.3s-.2-.2-.3-.2c-.1-.1-.2-.1-.3-.1-.2 0-.3 0-.4.1s-.2.2-.3.3-.2.3-.2.5-.1.4-.1.6 0 .4.1.6c0 .2.1.4.2.6s.2.3.3.4.3.2.5.2c.1 0 .2 0 .3-.1s.2-.1.3-.2.1-.2.2-.2c0-.1.1-.1.1-.2v-1.8z"></path><path d="m66 48.8c0 .2 0 .3.1.5 0 .2.1.3.2.5s.2.3.3.4.3.2.5.2h.3c.1 0 .2-.1.3-.1s.2-.1.2-.1c.1 0 .1-.1.2-.1l.2.5s-.1 0-.2.1c-.1 0-.2.1-.3.1s-.2.1-.4.1c-.1 0-.3 0-.4 0-.3 0-.6-.1-.8-.2s-.4-.3-.5-.5-.2-.4-.3-.7c0-.3-.1-.5-.1-.8 0-.2 0-.4.1-.6s.2-.4.3-.6.3-.4.5-.5.4-.2.6-.2c.3 0 .5.1.7.2s.3.3.4.5.2.4.2.6.1.5.1.7v.2h-2.2zm1.8-.8c0-.2-.1-.3-.2-.4s-.2-.3-.3-.4-.3-.1-.4-.1c-.2 0-.3 0-.4.1s-.2.2-.3.3-.1.3-.2.4c0 .2-.1.3-.1.4h1.8c.2 0 .1-.1.1-.3z"></path><path d="m71.8 50.7v-2.7c0-.1 0-.2-.1-.3 0-.1-.1-.2-.1-.3-.1-.1-.1-.2-.2-.2-.1-.1-.2-.1-.3-.1s-.2 0-.3.1-.2.1-.3.2-.2.2-.2.2c-.1.1-.1.2-.1.2v2.9h-.5v-4h.5v.6s0-.1.1-.1c.1-.1.1-.1.2-.2s.2-.1.3-.2.2-.1.4-.1.4 0 .6.1.3.2.4.3.2.3.2.4c.1.2.1.3.1.5v2.7z"></path><path d="m73.5 48.5v-.5h1.7v.5z"></path><path d="m80.7 50.7h-.6l-1.1-4.5-1.1 4.5h-.6l-1.2-5.3h.6l1 4.5 1.1-4.5h.6l1.1 4.5.9-4.5h.6z"></path><path d="m85.1 50.7v-.6s-.1.1-.1.1c-.1.1-.1.1-.2.2s-.2.1-.3.2-.2.1-.4.1-.4 0-.6-.1-.3-.2-.4-.3-.2-.3-.2-.4c0-.2-.1-.3-.1-.5v-2.7h.5v2.7.4c0 .1.1.2.1.3.1.1.1.2.2.2.1.1.2.1.3.1s.2 0 .4-.1c.1-.1.2-.1.3-.2s.2-.2.2-.3.1-.1.1-.2v-2.9h.5v4zm-1.2-5c0 .1 0 .2-.1.3-.1 0-.2 0-.3 0s-.2 0-.3-.1-.1-.2-.1-.3 0-.2.1-.3.2-.1.3-.1.2 0 .3.1c0 .2.1.3.1.4zm1.3 0c0 .1 0 .2-.1.3 0 0-.1 0-.2 0s-.2 0-.3-.1-.1-.2-.1-.3 0-.2.1-.3.2-.1.3-.1.2 0 .3.1z"></path><path d="m88.5 47.3s-.1 0-.1-.1c-.1 0-.1 0-.2 0s-.2 0-.3.1-.2.1-.3.2-.1.2-.2.2c0 .1-.1.1-.1.2v2.8h-.5v-4h.5v.6s0-.1.1-.1c0-.1.1-.1.2-.2s.2-.1.3-.2.2-.1.4-.1h.2c.1 0 .1.1.2.1z"></path><path d="m91.3 50.7s-.1 0-.2 0-.1 0-.2 0-.1 0-.2 0c-.2 0-.3 0-.4-.1-.1 0-.2-.1-.3-.2 0 0 0-.1 0-.2s0-.2 0-.3v-2.7h-.7v-.5h.7v-1.1h.5v1.1h.8v.5h-.8v2.7c0 .1 0 .2.1.3s.1.2.3.2h.2c.1 0 .1-.1.2-.1l.2.5c-.1-.1-.2-.1-.2-.1z"></path><path d="m94 50.7s-.1 0-.2 0-.1 0-.2 0-.1 0-.2 0c-.2 0-.3 0-.4-.1-.1 0-.2-.1-.3-.2s-.1-.2-.1-.3 0-.2 0-.3v-2.7h-.6v-.5h.7v-1.1h.5v1.1h.8v.5h-.8v2.7c0 .1 0 .2.1.3s.1.2.3.2h.2c.1 0 .1-.1.2-.1l.2.5c-.1 0-.2 0-.2 0z"></path><path d="m95.4 48.8c0 .2 0 .3.1.5 0 .2.1.3.2.5s.2.3.3.4.3.2.5.2h.3c.1 0 .2-.1.3-.1s.2-.1.2-.1c.1 0 .1-.1.2-.1l.2.5s-.1 0-.2.1c-.1 0-.2.1-.3.1s-.2.1-.4.1c-.1 0-.3 0-.4 0-.3 0-.6-.1-.8-.2s-.4-.3-.5-.5-.2-.4-.3-.7c0-.3-.1-.5-.1-.8 0-.2 0-.4.1-.6s.2-.4.3-.6.3-.4.5-.5.4-.2.6-.2c.3 0 .5.1.7.2s.3.3.4.5.2.4.2.6.1.5.1.7v.2h-2.2zm1.8-.8c0-.2-.1-.3-.2-.4s-.2-.3-.3-.4-.3-.1-.4-.1c-.2 0-.3 0-.4.1s-.2.2-.3.3-.1.3-.2.4c0 .2-.1.3-.1.4h1.8c.1 0 .1-.1.1-.3z"></path><path d="m103.2 50.7v-2.7c0-.1 0-.2 0-.3s-.1-.2-.1-.3c-.1-.1-.1-.2-.2-.2-.1-.1-.2-.1-.3-.1s-.3 0-.4.1c-.1 0-.2.1-.3.2s-.1.1-.2.2c0 .1-.1.1-.1.2v2.9h-.6v-2.7c0-.1 0-.2 0-.3s-.1-.2-.1-.3c-.1-.1-.1-.2-.2-.2-.1-.1-.2-.1-.4-.1-.1 0-.2 0-.4.1-.1.1-.2.1-.3.2s-.1.2-.2.2c0 .1-.1.2-.1.2v2.9h-.5v-4h.5v.6s0-.1.1-.1c0-.1.1-.1.2-.2s.2-.1.3-.2.3-.1.4-.1c.2 0 .4 0 .5.1s.2.1.3.2.1.1.2.2c0 .1.1.1.1.2 0 0 .1-.1.1-.1.1-.1.1-.1.2-.2s.2-.1.3-.2.3-.1.4-.1c.2 0 .4 0 .6.1s.3.2.4.3.2.3.2.4c0 .2.1.3.1.5v2.7h-.5z"></path><path d="m108.1 48.6c0 .3 0 .5-.1.8s-.2.5-.3.7-.3.4-.5.5-.5.2-.7.2c-.1 0-.2 0-.3 0s-.2 0-.4-.1c-.1 0-.2 0-.4-.1-.1 0-.2 0-.2 0v-5.5h.5v2.2s.1-.1.1-.2l.2-.2c.1-.1.2-.1.3-.2s.2-.1.3-.1c.3 0 .5.1.7.2s.3.3.5.5c.1.2.2.4.3.6zm-.6 0c0-.2 0-.4-.1-.5 0-.2-.1-.3-.2-.5-.1-.1-.2-.3-.3-.4s-.3-.1-.4-.1-.2 0-.3.1-.2.1-.3.2-.2.2-.2.2c-.1.1-.1.1-.1.2v2.4h.1.2.2.2c.2 0 .3-.1.5-.2.1-.1.3-.3.4-.4.1-.2.2-.4.2-.6.1 0 .1-.2.1-.4z"></path><path d="m109.5 48.8c0 .2 0 .3.1.5 0 .2.1.3.2.5s.2.3.3.4.3.2.5.2h.3c.1 0 .2-.1.3-.1s.2-.1.2-.1c.1 0 .1-.1.2-.1l.2.5s-.1 0-.2.1c-.1 0-.2.1-.3.1s-.2.1-.4.1c-.1 0-.3 0-.4 0-.3 0-.6-.1-.8-.2s-.4-.3-.5-.5-.2-.4-.3-.7c0-.3-.1-.5-.1-.8 0-.2 0-.4.1-.6s.2-.4.3-.6.3-.4.5-.5.4-.2.6-.2c.3 0 .5.1.7.2s.3.3.4.5.2.4.2.6.1.5.1.7v.2h-2.2zm1.7-.8c0-.2-.1-.3-.2-.4s-.2-.3-.3-.4-.3-.1-.4-.1c-.2 0-.3 0-.4.1s-.2.2-.3.3-.1.3-.2.4c0 .2-.1.3-.1.4h1.8c.2 0 .2-.1.1-.3z"></path><path d="m114.6 47.3s-.1 0-.1-.1c-.1 0-.1 0-.2 0s-.2 0-.3.1-.2.1-.3.2-.1.2-.2.2c0 .1-.1.1-.1.2v2.8h-.5v-4h.5v.6s0-.1.1-.1c0-.1.1-.1.2-.2s.2-.1.3-.2.2-.1.4-.1h.2c.1 0 .1.1.2.1z"></path><path d="m117.8 47.1s0 .1.1.1c0 .1.1.1.1.2s.1.2.1.3v.3c0 .2 0 .4-.1.6s-.2.3-.3.5c-.1.1-.3.2-.4.3-.2.1-.4.1-.5.1s-.1 0-.2 0-.1 0-.2.1c-.1 0-.1.1-.1.1s-.1.1-.1.1c0 .1.1.2.2.3s.2.1.4.1.4 0 .6.1c.2 0 .4.1.5.2.2.1.3.2.4.4.1.1.1.3.1.5 0 .1 0 .3-.1.4s-.2.3-.3.4-.3.2-.5.3-.4.1-.7.1c-.2 0-.4 0-.6-.1s-.4-.1-.5-.2-.2-.2-.3-.3-.1-.3-.1-.4c0-.2 0-.3.1-.4s.2-.2.3-.3.2-.1.3-.2c.1 0 .2-.1.3-.1 0 0-.1 0-.2 0s-.1-.1-.2-.1-.1-.1-.2-.2c0-.1-.1-.2-.1-.2 0-.1 0-.1.1-.2s.1-.1.2-.2c.1 0 .1-.1.2-.1s.1-.1.2-.1c-.1 0-.2-.1-.3-.1-.1-.1-.2-.1-.3-.3-.1-.1-.2-.2-.2-.4-.1-.2-.1-.4-.1-.6s0-.3.1-.5.2-.3.3-.4.3-.2.4-.3c.2-.1.3-.1.5-.1h.3c.1 0 .2 0 .2.1h1.1v.4h-.5zm0 4.2c0-.2-.1-.4-.3-.5s-.5-.2-.8-.2c-.1 0-.3 0-.4.1-.1 0-.2.1-.3.1-.1.1-.2.1-.2.2-.1.1-.1.2-.1.3s0 .2.1.3c0 .1.1.2.2.2.1.1.2.1.3.2.1 0 .3.1.4.1.2 0 .3 0 .4-.1.1 0 .2-.1.3-.2s.2-.2.2-.2c.2-.1.2-.2.2-.3zm-.2-3.3c0-.3-.1-.5-.2-.7s-.3-.3-.6-.3c-.1 0-.2 0-.3.1s-.2.1-.3.2-.1.2-.2.3c0 .1-.1.2-.1.4v.4c0 .1.1.2.1.3.1.1.1.2.2.2.1.1.2.1.4.1.1 0 .3 0 .4-.1s.2-.1.3-.2.1-.2.1-.3c.1-.2.2-.3.2-.4z"></path><path d="m57.2 39.3c0 .4-.1.7-.2 1.1-.1.3-.3.6-.5.9-.2.2-.4.4-.7.6-.2 0-.5.1-.8.1h-1.3v-5.3h1.1c.3 0 .7.1.9.2.3.1.5.3.8.5.2.2.4.5.5.8.2.3.2.7.2 1.1zm-.5 0c0-.3 0-.6-.1-.9s-.2-.5-.4-.6c-.2-.2-.3-.3-.5-.4s-.4-.1-.7-.1h-.6v4.3h.6c.2 0 .5-.1.7-.2s.4-.3.5-.5c.2-.2.3-.4.4-.7 0-.3.1-.6.1-.9z"></path><path d="m60.4 42v-.6s-.1.1-.1.1c-.1.1-.1.1-.2.2-.1.2-.2.3-.3.3-.1.1-.2.1-.4.1s-.4 0-.6-.1-.3-.2-.4-.3-.2-.3-.2-.4c0-.2-.1-.3-.1-.5v-2.7h.5v2.7.4c0 .1.1.2.1.3.1.1.1.2.2.2.1.1.2.1.3.1s.2 0 .4-.1c.1-.1.2-.1.3-.2s.2-.2.2-.3.1-.1.1-.2v-2.9h.8v4h-.6z"></path><path d="m64.3 42v-.6s-.1.1-.1.2c-.1.1-.1.1-.2.2s-.2.1-.3.2-.3.1-.4.1c-.3 0-.6-.1-.9-.3s-.4-.4-.4-.8c0-.2 0-.3.1-.5.1-.1.2-.3.4-.4.1-.1.3-.2.5-.3s.3-.1.5-.2l.8-.2v-.3c0-.3-.1-.5-.2-.7s-.4-.3-.6-.3c-.1 0-.2 0-.3 0s-.2.1-.3.1-.2.1-.3.1-.1.1-.1.1l-.2-.4s.1 0 .1-.1c.1 0 .2-.1.3-.1s.2-.1.4-.1h.4c.4 0 .7.1 1 .3.2.2.4.6.4 1v3zm0-2-.7.1c-.1 0-.2.1-.4.1-.1.1-.2.1-.3.2s-.2.2-.3.3-.1.2-.1.3c0 .2.1.4.2.5s.3.2.5.2c.1 0 .2 0 .4-.1.1 0 .2-.1.3-.2s.2-.2.2-.2c.1-.1.1-.2.1-.2v-1z"></path><path d="m67.3 42.1c-.1 0-.2 0-.3 0-.2 0-.3 0-.4-.1s-.2-.1-.2-.2c-.1-.1-.1-.2-.1-.3s0-.2 0-.4v-4.7h.5v4.7c0 .2 0 .3.1.4 0 .1.1.2.2.2h.1c.1 0 .1-.1.1-.1l.2.5c-.1-.1-.1 0-.2 0z"></path><path d="m68.7 40.1c0 .2 0 .3.1.5 0 .2.1.3.2.5s.2.3.3.4.3.2.5.2h.3c.1 0 .2-.1.3-.1s.2-.1.2-.1c.1 0 .1-.1.2-.1l.2.5s-.1 0-.2.1c-.1 0-.2.1-.3.1s-.2.1-.4.1c-.1 0-.3 0-.4 0-.3 0-.6-.1-.8-.2s-.4-.3-.5-.5-.2-.4-.2-.7-.1-.5-.1-.8c0-.2 0-.4.1-.6s.2-.4.3-.6.3-.4.5-.5.4-.2.6-.2c.3 0 .5.1.7.2s.3.3.4.5.2.4.2.6c.1.2.1.5.1.7v.2h-2.3zm1.8-.8c0-.2-.1-.3-.2-.4s-.2-.3-.3-.4-.3-.1-.4-.1c-.2 0-.3 0-.4.1s-.2.2-.3.3-.1.3-.2.4c0 .2-.1.3-.1.4h1.8c.1 0 .1-.1.1-.3z"></path><path d="m77.3 42v-2.5h-2.2v2.5h-.6v-5.3h.6v2.3h2.2v-2.3h.6v5.3z"></path><path d="m82.2 39.9c0 .2 0 .5-.1.7-.1.3-.1.5-.3.7-.1.2-.3.4-.5.5s-.4.2-.7.2-.6-.1-.8-.2-.4-.3-.5-.5-.2-.5-.3-.7c-.1-.3-.1-.5-.1-.7s0-.4.1-.6.2-.4.3-.6.3-.4.5-.5.4-.2.7-.2.5.1.7.2.4.3.5.5.2.4.3.6c.2.2.2.5.2.6zm-.5 0c0-.1 0-.3 0-.5s-.1-.3-.2-.5-.2-.3-.3-.4-.3-.2-.5-.2-.3.1-.5.2c-.1.1-.2.2-.3.4s-.1.3-.2.5c0 .2-.1.3-.1.5v.5c0 .2.1.4.2.6s.2.3.3.4.3.2.5.2.4-.1.5-.2.2-.3.3-.4c.1-.2.1-.4.2-.6 0-.1.1-.3.1-.5z"></path><path d="m85.7 41.9c-.1 0-.1.1-.2.1s-.2.1-.3.1-.2 0-.4 0c-.3 0-.5-.1-.7-.2s-.4-.3-.5-.5-.2-.4-.3-.7-.1-.5-.1-.8c0-.2 0-.4.1-.7.1-.2.2-.4.3-.6s.3-.3.5-.5c.2-.1.4-.2.7-.2h.3c.1 0 .2 0 .3.1.1 0 .2.1.2.1.1 0 .1.1.1.1l-.2.5s-.1 0-.1-.1c-.1 0-.1-.1-.2-.1s-.2-.1-.2-.1c-.1 0-.2 0-.2 0-.2 0-.3 0-.4.1s-.2.2-.3.4c-.1.1-.1.3-.2.5 0 .2-.1.4-.1.5 0 .2 0 .4.1.6 0 .2.1.4.2.6s.2.3.3.4.3.2.5.2h.3c.1 0 .2 0 .3-.1.1 0 .2-.1.2-.1.1 0 .1-.1.1-.1l.2.5c-.2-.1-.3 0-.3 0z"></path><path d="m89.1 42v-2.7c0-.1 0-.2-.1-.3 0-.1-.1-.2-.1-.3-.1-.1-.1-.2-.2-.2-.1-.1-.2-.1-.3-.1s-.2 0-.4.1c-.1.1-.2.1-.3.2s-.2.2-.2.2c-.1.1-.1.1-.1.2v2.9h-.5v-5.6h.5v2.2s0-.1.1-.2.1-.1.2-.2.2-.1.3-.2.2-.1.4-.1.4 0 .6.1.3.2.4.3.2.3.2.4c.1.2.1.3.1.5v2.8z"></path><path d="m93.2 40.9c0 .2 0 .3-.1.5-.1.1-.2.3-.3.4s-.3.2-.4.2c-.2.1-.3.1-.5.1s-.3 0-.4 0-.3 0-.4-.1c-.1 0-.2-.1-.3-.1s-.1-.1-.2-.1l.2-.4s.1 0 .2.1c.1 0 .2.1.3.1s.2.1.3.1h.3c.2 0 .4-.1.5-.2s.2-.3.2-.5c0-.1 0-.2-.1-.3s-.2-.2-.3-.3-.3-.2-.5-.3-.3-.2-.5-.3-.3-.2-.3-.3c-.1-.1-.1-.3-.1-.4 0-.2 0-.3.1-.5.1-.1.2-.3.3-.4s.3-.2.4-.2h.4.3c.1 0 .2 0 .3.1.1 0 .2.1.2.1.1 0 .1.1.1.1l-.2.4s-.1 0-.1-.1c-.1 0-.1-.1-.2-.1s-.2-.1-.2-.1c-.1 0-.2 0-.2 0-.2 0-.4.1-.5.2s-.2.3-.2.5c0 .1 0 .2.1.3s.2.2.4.3c.1.1.3.2.5.3s.3.2.5.3c.1.1.3.2.4.3z"></path><path d="m96.6 41.9c-.1 0-.1.1-.2.1s-.2.1-.3.1-.2 0-.4 0c-.3 0-.5-.1-.7-.2s-.4-.3-.5-.5-.2-.4-.3-.7-.1-.5-.1-.8c0-.2 0-.4.1-.7.1-.2.2-.4.3-.6s.3-.3.5-.5c.2-.1.4-.2.7-.2h.3c.1 0 .2 0 .3.1.1 0 .2.1.2.1.1 0 .1.1.1.1l-.2.5s-.1 0-.1-.1c-.1 0-.1-.1-.2-.1s-.2-.1-.2-.1c-.1 0-.2 0-.2 0-.2 0-.3 0-.4.1s-.2.2-.3.4c-.1.1-.1.3-.2.5 0 .2-.1.4-.1.5 0 .2 0 .4.1.6 0 .2.1.4.2.6s.2.3.3.4.3.2.5.2h.3c.1 0 .2 0 .3-.1.1 0 .2-.1.2-.1.1 0 .1-.1.1-.1l.2.5c-.2-.1-.2 0-.3 0z"></path><path d="m100 42v-2.7c0-.1 0-.2-.1-.3 0-.1-.1-.2-.1-.3-.1-.1-.1-.2-.2-.2-.1-.1-.2-.1-.3-.1s-.2 0-.4.1c-.1.1-.2.1-.3.2s-.2.2-.2.2c-.1.1-.1.1-.1.2v2.9h-.5v-5.6h.5v2.2s0-.1.1-.2.1-.1.2-.2.2-.1.3-.2h.4c.2 0 .4 0 .6.1s.3.2.4.3.2.3.2.4c.1.2.1.3.1.5v2.7z"></path><path d="m104.1 42v-.6s-.1.1-.1.1c-.1.1-.1.1-.2.2s-.2.1-.3.2-.2.1-.4.1-.4 0-.6-.1-.3-.2-.4-.3-.2-.3-.2-.4c0-.2-.1-.3-.1-.5v-2.7h.5v2.7.4c0 .1.1.2.1.3.1.1.1.2.2.2.1.1.2.1.3.1s.2 0 .4-.1c.1-.1.2-.1.3-.2s.2-.2.2-.3.1-.1.1-.2v-2.9h.5v4z"></path><path d="m107 42.1c-.1 0-.2 0-.3 0-.2 0-.3 0-.4-.1s-.2-.1-.2-.2c-.1-.1-.1-.2-.1-.3s0-.2 0-.4v-4.7h.5v4.7c0 .2 0 .3.1.4 0 .1.1.2.2.2h.1c.1 0 .1-.1.1-.1l.2.5c0-.1-.1 0-.2 0z"></path><path d="m108.4 40.1c0 .2 0 .3.1.5 0 .2.1.3.2.5s.2.3.3.4.3.2.5.2h.3c.1 0 .2-.1.3-.1s.2-.1.2-.1c.1 0 .1-.1.2-.1l.2.5s-.1 0-.2.1c-.1 0-.2.1-.3.1s-.2.1-.4.1c-.1 0-.3 0-.4 0-.3 0-.6-.1-.8-.2s-.4-.3-.5-.5-.2-.4-.2-.7-.1-.5-.1-.8c0-.2 0-.4.1-.6s.2-.4.3-.6.3-.4.5-.5.4-.2.6-.2c.3 0 .5.1.7.2s.3.3.4.5.2.4.2.6c.1.2.1.5.1.7v.2h-2.3zm1.8-.8c0-.2-.1-.3-.2-.4s-.2-.3-.3-.4-.3-.1-.4-.1c-.2 0-.3 0-.4.1s-.2.2-.3.3-.1.3-.2.4c0 .2-.1.3-.1.4h1.8c.2 0 .1-.1.1-.3z"></path></g><path d="m69 20.8c0 1.6-.2 3-.7 4.3-.4 1.3-1.1 2.5-1.9 3.4-.8 1-1.8 1.7-3 2.3-1.2.5-2.5.8-3.9.8h-5.2c-.2 0-.4-.1-.5-.2s-.2-.3-.2-.6v-19.1c0-.2.1-.4.2-.6.1-.1.3-.2.5-.2h5.2c1.4 0 2.7.2 3.9.7s2.2 1.2 3 2c.8.9 1.5 1.9 1.9 3.1.5 1.3.7 2.6.7 4.1m-3.7 0c0-1-.1-1.9-.4-2.8s-.6-1.6-1.1-2.2-1.1-1.1-1.8-1.5-1.5-.5-2.3-.5h-2.3v15h2.2c.9 0 1.7-.2 2.4-.6s1.3-.9 1.8-1.7c.5-.7.9-1.5 1.2-2.5.1-.9.3-2 .3-3.2" fill="#e2001a"></path><path d="m86.9 31.4c-.1.1-.3.2-.6.2h-2.1c-.2 0-.4-.1-.5-.2s-.2-.3-.2-.6v-8.5h-7.2v8.5c0 .2-.1.4-.2.6-.1.1-.3.2-.6.2h-2.1c-.2 0-.4-.1-.5-.2s-.2-.3-.2-.6v-19.1c0-.2.1-.4.2-.6.1-.1.3-.2.5-.2h2.1c.2 0 .4.1.6.2.1.1.2.3.2.6v7.6h7.2v-7.6c0-.2.1-.4.2-.6.1-.1.3-.2.5-.2h2.1c.2 0 .4.1.6.2.1.1.2.3.2.6v19.2c0 .2-.1.4-.2.5" fill="#e2001a"></path><path d="m103.9 25.7c0 .9-.2 1.8-.6 2.5s-.9 1.4-1.5 1.9c-.7.5-1.4.9-2.3 1.2s-1.8.4-2.8.4h-4.7c-.1 0-.3-.1-.4-.2s-.2-.2-.2-.4v-19.7c0-.1.1-.3.2-.4s.2-.1.4-.1h5.1c.8 0 1.6.1 2.4.3s1.4.5 2 .9 1 1 1.4 1.6c.3.7.5 1.4.5 2.3 0 .6-.1 1.1-.4 1.6-.2.5-.6 1-.9 1.4-.4.4-.8.7-1.2 1s-.9.5-1.3.6c.6.1 1.1.3 1.7.6.5.3 1 .6 1.4 1.1.4.4.7.9 1 1.5.1.6.2 1.2.2 1.9m-2.8-9.5c0-1.1-.4-1.9-1.1-2.5s-1.7-.9-2.8-.9h-3.4v7.2h3.3c.5 0 1-.1 1.5-.3s.9-.4 1.3-.8c.4-.3.7-.7.9-1.2s.3-1 .3-1.5m.5 9.4c0-1.2-.4-2.2-1.2-2.8-.8-.7-1.9-1-3.2-1h-3.4v8.1h3.4c.6 0 1.2-.1 1.7-.3s1-.5 1.4-.9.7-.8.9-1.3c.3-.6.4-1.2.4-1.8" fill="#5c6971"></path><path d="m122.4 31.1c0 .1-.1.3-.2.4s-.2.2-.4.2h-1.6c-.1 0-.3-.1-.4-.2s-.2-.2-.2-.4l-3.4-17.4-3.4 17.4c0 .1-.1.3-.2.4s-.2.2-.4.2h-1.6c-.1 0-.3-.1-.4-.2s-.2-.2-.2-.4l-4-19.7c0-.1 0-.3.1-.4s.2-.1.4-.1h1.3c.3 0 .5.2.6.5l3.1 17.4 3.4-17.4c.1-.3.3-.5.6-.5h1.6c.3 0 .5.2.6.5l3.4 17.4 3.1-17.4c.1-.3.3-.5.6-.5h1.2c.1 0 .3 0 .3.1.1.1.1.2.1.4z" fill="#5c6971"></path><path d="m23.4 29.9 8.8-8.8c.4-.4.8-1.1.8-1.6v-8.6h-9.6c-.4 0-.8.3-.8.8v18.2c0 .4.3.4.8 0" fill="#e2001a"></path><path d="m22.6 10.9h10.4v19.3h-10.4z" fill="none"></path><path d="m20 12.5-8.8 8.8c-.4.4-.8 1.1-.8 1.6v8.8h9.6c.4 0 .8-.3.8-.8v-18.4c0-.4-.4-.4-.8 0" fill="#e2001a"></path><path d="m10.4 12.2h10.4v19.5h-10.4z" fill="none"></path><path d="m20 10.9h-19.2c-.4 0-.8.3-.8.8v19.2c0 .4.3.8.8.8h9.6v-8.8c0-.4.3-1.1.8-1.6l8.8-8.8c.4-.4.8-.4.8 0v-.9c0-.4-.4-.7-.8-.7" fill="#e2001a"></path><path d="m0 10.9h20.8v20.8h-20.8z" fill="none"></path><path d="m23.4 10.9h9.6v-10.6c0-.4-.4-.4-.8 0l-8.8 8.8c-.4.4-.8 1.1-.8 1.6v1c0-.5.3-.8.8-.8" fill="#e2001a"></path><path d="m22.6 0h10.4v11.7h-10.4z" fill="none"></path><g opacity=".8"><path d="m42.6 10.9h-9.6v8.6c0 .4-.4 1.1-.8 1.6l-8.8 8.8c-.4.4-.8.4-.8 0v1c0 .4.3.8.8.8h19.2c.4 0 .8-.3.8-.8v-19.2c-.1-.5-.4-.8-.8-.8" fill="#5c6971"></path><path d="m22.6 10.9h20.8v20.8h-20.8z" fill="none"></path></g><g opacity=".6"><path d="m23.4 29.9 8.8-8.8c.4-.4.8-1.1.8-1.6v-8.6h-9.6c-.4 0-.8.3-.8.8v18.2c0 .4.3.4.8 0" fill="#5c6971"></path><path d="m22.6 10.9h10.4v19.3h-10.4z" fill="none"></path></g><g opacity=".8"><path d="m20 31.7h-9.6v10.5c0 .4.3.4.8 0l8.8-8.8c.4-.4.8-1.1.8-1.6v-.9c0 .4-.4.8-.8.8" fill="#5c6971"></path><path d="m10.4 30.9h10.4v11.6h-10.4z" fill="none"></path></g><g opacity=".6"><path d="m20 12.5-8.8 8.8c-.4.4-.8 1.1-.8 1.6v8.8h9.6c.4 0 .8-.3.8-.8v-18.4c0-.4-.4-.4-.8 0" fill="#5c6971"></path><path d="m10.4 12.2h10.4v19.5h-10.4z" fill="none"></path></g></svg>
